<?xml version="1.0" encoding="utf-8"?>
<!-- Generator: Adobe Illustrator 25.1.0, SVG Export Plug-In . SVG Version: 6.00 Build 0)  -->
<svg version="1.1" id="Layer_1" xmlns="http://www.w3.org/2000/svg" xmlns:xlink="http://www.w3.org/1999/xlink" x="0px" y="0px"
	 viewBox="0 0 511 511" style="enable-background:new 0 0 511 511;" xml:space="preserve">
<path d="M149.9,431.4L17.5,298.9c-23.3-23.4-23.3-61.4,0-84.8L149.9,81.5c14.4-14.4,35.8-18.6,54.7-10.8
	c18.8,7.8,30.9,25.9,30.9,46.1v120.7H491c11,0,20,8.9,20,20c0,11-8.9,20-20,20H235.5c-22,0-39.9-17.9-39.9-39.9V116.8
	c0-6-4.4-8.4-6.3-9.2c-1.9-0.8-6.9-2.2-11.2,2.1L45.7,242.3c-7.8,7.8-7.8,20.5,0,28.3l132.4,132.6c4.3,4.3,9.2,2.9,11.2,2.1
	c1.9-0.8,6.3-3.2,6.3-9.2v-42.9c0-11,8.9-20,20-20c11,0,20,8.9,20,20v42.9c0,20.2-12.1,38.3-30.9,46.1c-6.3,2.6-12.8,3.9-19.3,3.9
	C172.2,446.1,159.5,441,149.9,431.4z"/>
</svg>
