<?xml version="1.0" encoding="utf-8"?>
<!-- Generator: Adobe Illustrator 25.0.0, SVG Export Plug-In . SVG Version: 6.00 Build 0)  -->
<svg version="1.1" id="Capa_1" xmlns="http://www.w3.org/2000/svg" xmlns:xlink="http://www.w3.org/1999/xlink" x="0px" y="0px"
	 viewBox="0 0 512 512" style="enable-background:new 0 0 512 512;" xml:space="preserve">
<style type="text/css">
	.st0{fill:#2B2C43;}
</style>
<g>
	<g>
		<path class="st0" d="M466.1,139.8c-25.9,25.9-68,25.9-93.9,0s-25.9-68,0-93.9L326.3,0L0,326.3l45.9,45.9c25.9-25.9,68-25.9,93.9,0
			s25.9,68,0,93.9l45.9,45.9L512,185.7L466.1,139.8z M255.5,182.9l-21.3-21.3l21.2-21.2l21.3,21.3L255.5,182.9z M298.1,225.5
			l-21.3-21.3L298,183l21.3,21.3L298.1,225.5z M340.7,268.1l-21.3-21.3l21.2-21.2l21.3,21.3L340.7,268.1z"/>
	</g>
</g>
</svg>
