<?xml version="1.0" encoding="utf-8"?>
<!-- Generator: Adobe Illustrator 25.0.0, SVG Export Plug-In . SVG Version: 6.00 Build 0)  -->
<svg version="1.1" id="Capa_1" xmlns="http://www.w3.org/2000/svg" xmlns:xlink="http://www.w3.org/1999/xlink" x="0px" y="0px"
	 viewBox="0 0 248.3 248.3" style="enable-background:new 0 0 248.3 248.3;" xml:space="preserve">
<style type="text/css">
	.st0{fill:#2B2C43;}
</style>
<g>
	<g>
		<path class="st0" d="M10,241.3h228.4c3.1,0,5.9-1.2,7.8-3.4c1.7-1.9,2.4-4.3,2.1-6.7c-5.4-41.7-31-76.5-66.1-95.1
			c-14.8,14.8-35.3,24-58,24s-43.1-9.2-58-24c-35.1,18.5-60.8,53.3-66.2,95.1c-0.3,2.5,0.4,4.8,2.1,6.7
			C4.1,240.1,6.9,241.3,10,241.3z"/>
		<path class="st0" d="M72.7,127.1c1.3,1.4,2.7,2.7,4.2,4c12.6,11.3,29.1,18.2,47.3,18.2s34.7-6.9,47.3-18.2c1.4-1.3,2.8-2.6,4.2-4
			c1.3-1.4,2.6-2.8,3.8-4.3c9.9-12.2,15.8-27.7,15.8-44.6c0-39.2-31.9-71.1-71.1-71.1S53.1,38.9,53.1,78.2
			c0,16.9,5.9,32.4,15.8,44.6C70.1,124.3,71.4,125.7,72.7,127.1z"/>
	</g>
</g>
</svg>
